<svg xmlns="http://www.w3.org/2000/svg" xmlns:xlink="http://www.w3.org/1999/xlink" version="1" width="720" height="504" viewBox="-2100 -1470 4200 2940"><defs><clipPath id="b"><path d="M-31.5 0v-70h63V0zM0-47v12h31.5v-12z"/></clipPath><path id="a" d="M0 0a31.5 35 0 0 0 0-70A31.5 35 0 0 0 0 0m0-13a18.5 22 0 0 0 0-44 18.5 22 0 0 0 0 44" fill-rule="evenodd"/><path id="c" d="M-31.5 0h13v-26h28a22 22 0 0 0 0-44h-40zm13-39h27a9 9 0 0 0 0-18h-27z" fill-rule="evenodd"/><g id="f" fill="#fff"><g id="e"><path id="d" d="M0-1l-.31.95.477.156"/><use xlink:href="#d" transform="scale(-1 1)"/></g><use xlink:href="#e" transform="rotate(72)"/><use xlink:href="#e" transform="rotate(-72)"/><use xlink:href="#e" transform="rotate(144)"/><use xlink:href="#e" transform="rotate(-144)"/></g></defs><rect x="-50%" y="-50%" width="100%" height="100%" fill="#009b3a"/><path d="M-1743 0L0 1113 1743 0 0-1113z" fill="#fedf00"/><circle r="735" fill="#002776"/><clipPath id="g"><circle r="735"/></clipPath><path d="M-2205 1470a1785 1785 0 0 1 3570 0h-105a1680 1680 0 1 0-3360 0z" clip-path="url(#g)" fill="#fff"/></svg>